<?xml version="1.0" encoding="utf-8"?>
<!-- Generator: Adobe Illustrator 27.0.1, SVG Export Plug-In . SVG Version: 6.00 Build 0)  -->
<svg version="1.1" id="katman_1" xmlns="http://www.w3.org/2000/svg" xmlns:xlink="http://www.w3.org/1999/xlink" x="0px" y="0px"
	 viewBox="0 0 1000 1000" style="enable-background:new 0 0 1000 1000;" xml:space="preserve">
<style type="text/css">
	.st0{fill:url(#SVGID_1_);}
	.st1{fill:url(#SVGID_00000181057983930040251470000011102187456857344655_);}
	.st2{fill:#412354;}
	.st3{fill:#272933;}
</style>
<linearGradient id="SVGID_1_" gradientUnits="userSpaceOnUse" x1="266.7999" y1="389.7218" x2="500.0045" y2="389.7218">
	<stop  offset="0" style="stop-color:#402312"/>
	<stop  offset="0" style="stop-color:#9B185D"/>
	<stop  offset="1" style="stop-color:#402312"/>
</linearGradient>
<path class="st0" d="M369.3,389.7c0-82.7,55.1-152.5,130.7-174.6c-16.3-4.8-33.5-7.3-51.3-7.3c-100.5,0-181.9,81.5-181.9,181.9
	s81.5,181.9,181.9,181.9c17.8,0,35-2.6,51.3-7.3C424.5,542.2,369.3,472.4,369.3,389.7z"/>
<linearGradient id="SVGID_00000165938850887819939410000018247079591521010601_" gradientUnits="userSpaceOnUse" x1="500.0045" y1="389.7218" x2="733.2094" y2="389.7218">
	<stop  offset="0" style="stop-color:#402312"/>
	<stop  offset="1" style="stop-color:#9E1460"/>
</linearGradient>
<path style="fill:url(#SVGID_00000165938850887819939410000018247079591521010601_);" d="M551.3,207.8c-17.8,0-35,2.6-51.3,7.3
	c75.5,22.1,130.7,91.9,130.7,174.6c0,82.7-55.1,152.5-130.7,174.6c16.3,4.8,33.5,7.3,51.3,7.3c100.5,0,181.9-81.5,181.9-181.9
	S651.8,207.8,551.3,207.8z"/>
<g>
	<path class="st2" d="M500,215.1c-75.5,22.1-130.7,91.9-130.7,174.6c0,82.7,55.1,152.5,130.7,174.6
		c75.5-22.1,130.7-91.9,130.7-174.6C630.7,307,575.5,237.3,500,215.1z M579.4,429.2c0,43-38.3,77.9-85.6,77.9h0
		c-45.3,0-82.4-32-85.4-72.6h-0.2v-5.3v-11.3v-3.2v-50.4h53.2v53.6v11.3c0,16.6,15.1,30.1,33.6,29.5c17.6-0.6,31.2-14.2,31.2-30.2
		v-78.7v-48.7h51.5c0.6-0.3,1.1-0.6,1.7-0.9v49.5V429.2z"/>
	<path class="st2" d="M552.7,325.7c-8.6,0-15.5,6.9-15.5,15.5c0,8.6,6.9,15.5,15.5,15.5c8.6,0,15.5-6.9,15.5-15.5
		C568.2,332.6,561.2,325.7,552.7,325.7z"/>
</g>
<g>
	<path class="st3" d="M70.2,607.7v60.5c0,9.3-0.8,16.3-2.5,21.2c-1.7,4.9-4.9,8.7-9.7,11.5c-4.8,2.8-11.4,4.3-19.6,4.3
		c-7.3,0-13.8-0.8-19.7-2.3v-22.9c4.1,1.2,8,1.8,11.5,1.8c4.2,0,7.2-1,9-2.9c1.8-1.9,2.7-5.5,2.7-10.6v-60.5H70.2z"/>
	<path class="st3" d="M132.2,678l26.2,1.8c-1.5,7-5.5,13-11.8,18c-6.4,4.9-14.9,7.4-25.8,7.4c-12,0-21.7-3.5-28.8-10.4
		c-7.2-7-10.8-15.6-10.8-25.9c0-10.7,3.5-19.7,10.6-27.1c7.1-7.4,16.5-11,28.3-11c11.4,0,20.7,3.5,27.7,10.4
		c7.1,6.9,10.6,16.4,10.6,28.3c0,1,0,2.3-0.1,4.1h-47.9c0.1,4.5,0.9,7.8,2.4,10c1.5,2.2,4.4,3.3,8.6,3.3
		C127.5,686.8,131.1,683.8,132.2,678z M130.3,659.4c0-4.8-1-8.1-2.9-9.7c-1.9-1.7-4.2-2.5-7-2.5c-6.6,0-9.9,4.1-9.9,12.2H130.3z"/>
	<path class="st3" d="M239.2,703.6h-28.1v-45c0-3.7-0.6-6.1-1.7-7.1c-1.1-1-2.6-1.5-4.3-1.5c-5.1,0-7.7,3.6-7.7,10.7v43h-28.1v-71.5
		h26v10.1c3.8-7.7,10.7-11.6,20.6-11.6c5.2,0,9.6,1,13.2,3c3.6,2,6.2,4.6,7.7,7.7s2.3,8.7,2.3,16.5V703.6z"/>
	<path class="st3" d="M323.8,703.6h-28.1v-45c0-3.7-0.6-6.1-1.7-7.1c-1.1-1-2.6-1.5-4.3-1.5c-5.1,0-7.7,3.6-7.7,10.7v43H254v-71.5
		h26v10.1c3.8-7.7,10.7-11.6,20.6-11.6c5.2,0,9.6,1,13.2,3c3.6,2,6.2,4.6,7.7,7.7s2.3,8.7,2.3,16.5V703.6z"/>
	<path class="st3" d="M366.6,604.6v22.2h-28.1v-22.2H366.6z M366.6,632.1v71.5h-28.1v-71.5H366.6z"/>
	<path class="st3" d="M411.6,650.3v53.3h-26.4v-53.3h-10.7v-18.2h10.7c0-5.9,0.3-10.3,0.8-13.1c0.5-2.8,1.8-5.6,3.9-8.2
		c2.1-2.6,4.8-4.6,8.3-6c3.5-1.4,8.1-2.1,14-2.1c6.3,0,12.3,0.5,18.1,1.5v18.4c-4.5-0.6-7.8-0.9-10-0.9c-2.2,0-4.2,0.4-6,1.3
		c-1.8,0.9-2.7,3.1-2.7,6.5v2.5h18.3v18.2H411.6z"/>
	<path class="st3" d="M484.4,678l26.2,1.8c-1.5,7-5.5,13-11.8,18c-6.4,4.9-14.9,7.4-25.8,7.4c-12,0-21.7-3.5-28.8-10.4
		c-7.2-7-10.8-15.6-10.8-25.9c0-10.7,3.5-19.7,10.6-27.1c7.1-7.4,16.5-11,28.3-11c11.4,0,20.7,3.5,27.7,10.4
		c7.1,6.9,10.6,16.4,10.6,28.3c0,1,0,2.3-0.1,4.1h-47.9c0.1,4.5,0.9,7.8,2.4,10c1.5,2.2,4.4,3.3,8.6,3.3
		C479.7,686.8,483.3,683.8,484.4,678z M482.5,659.4c0-4.8-1-8.1-2.9-9.7c-1.9-1.7-4.2-2.5-7-2.5c-6.6,0-9.9,4.1-9.9,12.2H482.5z"/>
	<path class="st3" d="M548.4,703.6h-26.9v-71.5h23.3v14.8c2.7-10.7,8.9-16.1,18.6-16.1c1,0,2.3,0.1,4.1,0.3v25
		c-2-0.5-3.7-0.7-5.3-0.7c-9.3,0-13.9,5.2-13.9,15.5V703.6z"/>
	<path class="st3" d="M685.7,680.7v22.9h-72.2v-96h72.2v22.1h-43.3v13.9h35V665h-35v15.7H685.7z"/>
	<path class="st3" d="M766.2,703.6h-28.1v-45c0-3.7-0.6-6.1-1.7-7.1c-1.1-1-2.6-1.5-4.3-1.5c-5.1,0-7.7,3.6-7.7,10.7v43h-28.1v-71.5
		h26v10.1c3.8-7.7,10.7-11.6,20.6-11.6c5.2,0,9.6,1,13.2,3c3.6,2,6.2,4.6,7.7,7.7s2.3,8.7,2.3,16.5V703.6z"/>
	<path class="st3" d="M855.4,615.9l-0.7,19.2l-1.3-0.1c-2.5-0.1-4.3-0.2-5.4-0.2c-4.4,0-7,0.9-7.9,2.6c5.3,4.4,8,9.7,8,16
		c0,7.3-2.9,12.8-8.7,16.5c-5.8,3.7-13.7,5.5-23.6,5.5c-0.2,0-1.5,0-3.7-0.1c-2.1-0.1-3.1-0.1-3.2-0.1c-4.5,0-6.8,1.2-6.8,3.5
		c0,2.1,2,3.2,6,3.3l23,1c8.4,0.4,14.5,2.7,18.5,7c3.9,4.3,5.9,9.4,5.9,15.1c0,6.8-2.9,12.4-8.8,16.8c-5.8,4.3-17.2,6.5-34.1,6.5
		c-26,0-39-6-39-17.9c0-6.5,3.4-11.1,10.3-13.6c-4.5-3.1-6.7-6.9-6.7-11.2c0-7,4.6-12.3,13.7-15.9c-7.6-3.3-11.5-8.9-11.5-16.6
		c0-7.1,3.1-12.6,9.3-16.5s14.7-5.9,25.5-5.9c4.9,0,9.4,0.5,13.4,1.5c1.6-11.2,7.6-16.8,17.8-16.8
		C847.9,615.3,851.2,615.5,855.4,615.9z M807.2,702.7c-1,0-2.1-0.1-3.1-0.1c-4.8,0-7.2,1.5-7.2,4.5c0,2.8,1.8,4.6,5.5,5.4
		c3.7,0.8,8.6,1.2,14.7,1.2c5.8,0,9.5-0.5,11.2-1.5c1.7-1,2.5-2.3,2.5-4.1c0-1.2-0.4-2.2-1.1-3.1c-0.8-0.8-2.5-1.3-5.3-1.4
		L807.2,702.7z M814.4,662.1c5.4,0,8.2-2.9,8.2-8.6c0-5.9-2.8-8.9-8.4-8.9c-5.5,0-8.3,3-8.3,9C805.9,659.3,808.7,662.1,814.4,662.1z
		"/>
	<path class="st3" d="M890.5,607.7v96h-27.6v-96H890.5z"/>
	<path class="st3" d="M952.5,678l26.2,1.8c-1.5,7-5.5,13-11.8,18c-6.4,4.9-14.9,7.4-25.8,7.4c-12,0-21.7-3.5-28.8-10.4
		c-7.2-7-10.8-15.6-10.8-25.9c0-10.7,3.5-19.7,10.6-27.1c7.1-7.4,16.5-11,28.3-11c11.4,0,20.7,3.5,27.7,10.4
		c7.1,6.9,10.6,16.4,10.6,28.3c0,1,0,2.3-0.1,4.1h-47.9c0.1,4.5,0.9,7.8,2.4,10c1.5,2.2,4.4,3.3,8.6,3.3
		C947.9,686.8,951.5,683.8,952.5,678z M950.6,659.4c0-4.8-1-8.1-2.9-9.7c-1.9-1.7-4.2-2.5-7-2.5c-6.6,0-9.9,4.1-9.9,12.2H950.6z"/>
</g>
<g>
	<path class="st3" d="M85.8,760.3v20.2h-3l-1.3-4.9c-2.4,3.4-6,5.1-10.7,5.1c-5.1,0-9.1-1.9-12-5.8c-2.9-3.9-4.3-8.6-4.3-14.1
		c0-5.9,1.5-10.8,4.5-14.8c3-3.9,7.1-5.9,12.3-5.9c7.2,0,11.9,3.8,14.1,11.3l-4.6,1.1c-0.7-2.9-1.9-5-3.7-6.3c-1.8-1.3-3.8-2-6-2
		c-3.8,0-6.7,1.6-8.5,4.7s-2.7,7-2.7,11.7c0,5.1,1,9,3.1,11.8c2,2.8,4.8,4.3,8.4,4.3c2.7,0,5-0.9,6.9-2.7c1.8-1.8,2.8-4.3,2.8-7.5
		c0-0.6,0-1.3-0.1-2.1h-9.7v-4.1H85.8z"/>
	<path class="st3" d="M98.9,779.9h-4.5v-28.8h3.9v6.7c1.4-3.2,2.8-5.2,4.2-6.2c1.4-0.9,2.8-1.4,4.3-1.4c0.5,0,1,0,1.8,0.1v4.3h-0.9
		c-2.5,0-4.5,0.9-6.2,2.8c-1.6,1.8-2.5,4.3-2.6,7.3V779.9z"/>
	<path class="st3" d="M136.3,779.9h-4.4c-0.2-0.9-0.3-2.6-0.5-5.2c-2,4-5.4,6-10.1,6c-3.2,0-5.7-0.9-7.5-2.6
		c-1.7-1.7-2.6-3.8-2.6-6.2c0-2.9,1.2-5.3,3.7-7.2c2.5-1.9,6.7-2.8,12.6-2.8c0.8,0,2.1,0,3.8,0.1c0-2.3-0.2-3.9-0.5-5
		c-0.4-1-1.1-1.8-2.2-2.4s-2.6-0.9-4.5-0.9c-4.6,0-7.2,1.7-7.9,5.2l-4.1-0.7c1-5.3,5.3-8,12.7-8c4,0,6.8,0.9,8.5,2.6
		c1.7,1.8,2.5,4.8,2.5,9.2v12.3C135.7,776.4,135.9,778.2,136.3,779.9z M131.3,765.5c-1.8-0.1-3.2-0.2-4.2-0.2
		c-3.5,0-6.3,0.6-8.3,1.7c-2,1.2-2.9,2.9-2.9,5.1c0,1.4,0.5,2.6,1.6,3.6c1.1,1,2.6,1.5,4.6,1.5c2.7,0,4.9-1,6.7-2.9
		c1.7-2,2.6-4.3,2.6-6.9C131.4,766.9,131.4,766.2,131.3,765.5z"/>
	<path class="st3" d="M149.1,789.7h-4.5v-38.6h4.1v5.6c2-4.3,5.1-6.4,9.1-6.4c3.4,0,6.2,1.4,8.2,4.3c2.1,2.8,3.1,6.5,3.1,10.8
		c0,4.7-1.1,8.4-3.2,11.2c-2.2,2.8-4.9,4.1-8.3,4.1c-3.6,0-6.5-1.7-8.5-5.2V789.7z M149.1,761.3v8.1c0.3,2.2,1.2,4,2.8,5.4
		c1.6,1.4,3.2,2.1,4.9,2.1c2,0,3.7-0.9,5.2-2.6c1.5-1.7,2.3-4.7,2.3-8.9c0-3.6-0.7-6.4-2.1-8.4c-1.4-2-3.2-3-5.5-3
		c-1.8,0-3.4,0.7-4.8,2.1C150.5,757.7,149.6,759.4,149.1,761.3z"/>
	<path class="st3" d="M198.5,779.9H194v-17.5c0-2.1-0.1-3.6-0.4-4.6c-0.3-1-0.9-1.9-1.8-2.7c-1-0.8-2.1-1.1-3.3-1.1
		c-2.3,0-4.2,0.9-5.8,2.8c-1.6,1.9-2.3,4.4-2.3,7.6v15.5h-4.5v-39h4.5v15.5c2-4.1,5-6.1,8.7-6.1c1.7,0,3.2,0.3,4.5,1
		c1.3,0.7,2.3,1.5,3,2.6c0.7,1.1,1.2,2.2,1.4,3.2c0.3,1.1,0.4,2.8,0.4,5.3V779.9z"/>
	<path class="st3" d="M212.1,740.9v5h-4.8v-5H212.1z M211.9,751.1v28.8h-4.5v-28.8H211.9z"/>
	<path class="st3" d="M237.9,769.8l4.1,0.7c-0.6,3.2-1.8,5.7-3.8,7.5c-2,1.8-4.4,2.7-7.3,2.7c-4,0-7-1.5-9.1-4.4
		c-2.1-2.9-3.1-6.5-3.1-10.8c0-4.4,1.1-8,3.3-10.9s5.2-4.4,9-4.4c3.1,0,5.7,0.9,7.6,2.8c1.9,1.9,3.1,4.3,3.5,7.3l-4.1,0.8
		c-0.8-4.8-3.1-7.1-6.9-7.1c-2.5,0-4.4,1.1-5.7,3.2c-1.3,2.1-2,4.8-2,8.2c0,3.7,0.7,6.6,2,8.6c1.3,2,3.2,3.1,5.6,3.1
		C234.6,777,236.9,774.6,237.9,769.8z"/>
	<path class="st3" d="M263.2,779.9v-39h13.1c5.5,0,9.8,1.9,12.9,5.6c3.1,3.8,4.6,8.3,4.6,13.8c0,5.5-1.5,10.1-4.5,13.9
		c-3,3.8-6.8,5.7-11.4,5.7H263.2z M268,775.8h7.9c4.2,0,7.4-1.4,9.5-4.3c2.2-2.9,3.3-6.7,3.3-11.5c0-3.8-1-7.3-3.1-10.4
		c-2.1-3.1-5.3-4.6-9.7-4.6H268V775.8z"/>
	<path class="st3" d="M319.7,771.3l4.2,0.9c-0.8,2.5-2.2,4.5-4.5,6.1c-2.2,1.6-4.8,2.4-7.8,2.4c-3.9,0-7.1-1.4-9.6-4.2
		c-2.4-2.8-3.7-6.4-3.7-10.9c0-4.6,1.3-8.3,3.8-11.1c2.5-2.8,5.7-4.2,9.5-4.2c3.8,0,6.8,1.3,9.1,3.9c2.3,2.6,3.5,6.5,3.5,11.7h-21
		c0,4.4,0.9,7.3,2.7,8.8c1.8,1.5,3.8,2.3,5.8,2.3C315.6,777,318.2,775.1,319.7,771.3z M319.4,762.6c0-1.6-0.3-3.1-0.8-4.3
		c-0.5-1.3-1.3-2.3-2.5-3.2s-2.6-1.3-4.3-1.3c-2.2,0-4.1,0.8-5.7,2.4c-1.6,1.6-2.4,3.8-2.6,6.5H319.4z"/>
	<path class="st3" d="M327.2,772.4l4.3-0.9c1,3.6,4,5.5,9,5.5c1.9,0,3.4-0.4,4.7-1.3c1.3-0.8,1.9-2,1.9-3.5c0-2.3-1.6-3.7-4.9-4.3
		l-6.1-1.2c-2.4-0.5-4.3-1.4-5.7-2.7c-1.4-1.3-2.1-3.1-2.1-5.3c0-2.4,1-4.4,2.9-6.1c1.9-1.6,4.5-2.4,7.8-2.4
		c6.3,0,10.1,2.4,11.6,7.3l-4.1,0.9c-1.2-3-3.6-4.5-7.3-4.5c-1.8,0-3.3,0.4-4.5,1.1c-1.2,0.8-1.8,1.8-1.8,3.2c0,2.1,1.5,3.5,4.5,4
		l5.6,1c5.9,1.1,8.8,3.9,8.8,8.6c0,2.7-1.1,4.8-3.3,6.4c-2.2,1.6-5.1,2.4-8.7,2.4C333,780.7,328.8,778,327.2,772.4z"/>
	<path class="st3" d="M362.8,740.9v5H358v-5H362.8z M362.7,751.1v28.8h-4.5v-28.8H362.7z"/>
	<path class="st3" d="M395.2,746.6v3.6c-2.1,0-3.4,0.2-4.1,0.7c-0.7,0.5-1.2,1.3-1.4,2.6c1.8,2.1,2.8,4.5,2.8,7c0,2.6-1,4.9-3,6.8
		c-2,1.9-4.7,2.8-8.1,2.8c-0.8,0-1.4-0.1-2-0.2c-1-0.2-1.7-0.3-2-0.3c-0.5,0-1.1,0.3-1.9,0.8c-0.7,0.5-1.1,1.2-1.1,2
		c0,1.1,0.5,1.9,1.6,2.2s3.5,0.6,7.4,0.7c3.3,0.1,5.7,0.3,7.3,0.7c1.6,0.4,2.9,1.1,4,2.3s1.6,2.7,1.6,4.4c0,5.5-4.8,8.3-14.5,8.3
		c-4.6,0-7.9-0.7-10-2.1c-2.1-1.4-3.2-3.2-3.2-5.5c0-2.8,1.5-4.7,4.4-5.8c-1.9-1.2-2.8-2.8-2.8-4.7c0-2.2,1.3-3.9,4-5.1
		c-2.5-2-3.7-4.6-3.7-7.6c0-2.9,1.1-5.2,3.2-7c2.1-1.8,4.7-2.7,7.8-2.7c2.2,0,4.1,0.4,5.9,1.2c0.3-1.9,0.9-3.2,2-3.9
		c1-0.7,2.6-1.1,4.7-1.1C394.3,746.5,394.6,746.5,395.2,746.6z M376.1,778.8c-2.1,0.9-3.1,2.2-3.1,4c0,1.5,0.9,2.6,2.6,3.4
		c1.7,0.8,3.9,1.2,6.6,1.2c2.5,0,4.7-0.3,6.8-1s3.1-1.9,3.1-3.5c0-0.9-0.3-1.6-0.9-2.2c-0.6-0.6-1.4-0.9-2.5-1.1
		c-1.1-0.2-2.9-0.3-5.5-0.3C379.9,779.1,377.6,779,376.1,778.8z M381.5,766.6c1.9,0,3.5-0.6,4.7-1.8s1.8-2.7,1.8-4.6
		c0-1.9-0.6-3.5-1.9-4.7c-1.2-1.2-2.8-1.8-4.5-1.8c-1.7,0-3.2,0.6-4.5,1.7s-2,2.7-2,4.8c0,1.9,0.6,3.4,1.8,4.5
		C378,766,379.5,766.6,381.5,766.6z"/>
	<path class="st3" d="M423.1,779.9h-4.2v-18.5c0-2.7-0.6-4.5-1.7-5.6c-1.2-1.1-2.6-1.6-4.2-1.6c-2.3,0-4.2,0.9-5.8,2.7
		c-1.6,1.8-2.3,4.2-2.3,7.2v15.8h-4.5v-28.8h4.2v5.3c2.3-4.1,5.4-6.1,9.1-6.1c2.2,0,4,0.6,5.5,1.7c1.5,1.1,2.6,2.4,3.1,3.8
		c0.6,1.4,0.8,3.9,0.8,7.5V779.9z"/>
	<path class="st3" d="M479.1,775.8v4.1c-1.7,0.3-3.1,0.4-4.2,0.4c-0.8,0-1.7-0.1-2.6-0.4c-0.9-0.3-2.2-1.3-4-3.1
		c-3.1,2.6-6.6,3.9-10.5,3.9c-3.9,0-7.1-1.1-9.5-3.4c-2.4-2.3-3.6-5-3.6-8.2c0-2.6,0.8-4.9,2.5-7.1c1.7-2.2,4.2-3.8,7.5-4.9
		c-2.5-3.6-3.7-6.6-3.7-8.9c0-2.2,0.8-4.1,2.4-5.7c1.6-1.6,3.7-2.4,6.3-2.4c2.7,0,4.9,0.8,6.6,2.3c1.7,1.5,2.6,3.5,2.6,6.1
		c0,4.2-2.7,7.5-8.2,10.1l8.2,12.5c2.7-3.4,4.4-7.5,5.3-12.5l4.2,0.9c-1.2,5.6-3.6,10.5-7.2,14.6c1.2,1.3,2.6,2,4.2,2
		C476.1,776.1,477.3,776,479.1,775.8z M456.7,760.2c-2.7,1.2-4.6,2.4-5.6,3.8s-1.5,3-1.5,5c0,2.8,0.9,4.8,2.6,6.1
		c1.8,1.3,3.8,2,6.2,2c3,0,5.5-1,7.7-3.1L456.7,760.2z M458.7,755.8c3.1-1.7,4.9-3.1,5.6-4.1c0.6-1,0.9-2,0.9-3
		c0-1.4-0.5-2.5-1.5-3.5c-1-1-2.2-1.5-3.7-1.5c-1.4,0-2.5,0.4-3.4,1.3c-0.9,0.9-1.3,1.8-1.3,2.9
		C455.3,749.7,456.4,752.3,458.7,755.8z"/>
	<path class="st3" d="M496.4,769.6l4.4-1c1.8,5.3,5.6,8,11.5,8c3.1,0,5.4-0.7,7-2c1.6-1.3,2.3-3.1,2.3-5.3c0-1.7-0.6-3-1.8-4
		s-2.6-1.7-4.1-2.1l-7.8-1.9c-2-0.5-3.7-1.1-5-1.9s-2.4-1.9-3.3-3.4c-0.9-1.5-1.3-3.3-1.3-5.2c0-3.3,1.2-5.9,3.7-7.8
		c2.5-1.9,5.6-2.9,9.5-2.9c7.1,0,11.7,3.2,14,9.6l-4.4,1.3c-0.5-2.3-1.7-4-3.6-5.2c-1.9-1.2-3.9-1.8-6.1-1.8c-2.1,0-4,0.6-5.7,1.7
		s-2.5,2.7-2.5,4.8c0,2.9,2.1,4.8,6.3,5.9l7.3,1.7c6.7,1.6,10,5.2,10,10.8c0,3.4-1.3,6.2-3.8,8.4c-2.5,2.2-6,3.4-10.6,3.4
		C504.3,780.7,499,777,496.4,769.6z"/>
	<path class="st3" d="M543.9,780.7c-4,0-7.1-1.5-9.3-4.4c-2.2-2.9-3.3-6.6-3.3-10.9c0-4.6,1.2-8.3,3.7-11c2.5-2.7,5.6-4.1,9.3-4.1
		c4,0,7.1,1.4,9.4,4.3c2.3,2.9,3.4,6.5,3.4,10.8c0,4.5-1.2,8.2-3.7,11C551.1,779.3,547.9,780.7,543.9,780.7z M544.3,777
		c2.3,0,4.2-0.9,5.7-2.8c1.5-1.9,2.3-4.8,2.3-8.8c0-4-0.8-6.9-2.4-8.7c-1.6-1.8-3.5-2.7-5.7-2.7c-2.2,0-4.1,0.9-5.7,2.7
		c-1.5,1.8-2.3,4.7-2.3,8.6c0,4.2,0.8,7.2,2.3,9C540.1,776.1,542,777,544.3,777z"/>
	<path class="st3" d="M575.9,751.1v3.5h-6.9v25.3h-4.5v-25.3h-4.9v-3.5h4.9c0.1-4.6,1-7.6,2.7-8.9s3.8-2,6.2-2
		c1.2,0,2.6,0.1,4.1,0.4v3.6c-1-0.2-1.9-0.4-2.8-0.4c-2,0-3.4,0.4-4.4,1.3c-0.9,0.9-1.4,2.5-1.4,4.9v1.2H575.9z"/>
	<path class="st3" d="M596.2,776.9v3.5c-1.6,0.2-3,0.3-4.1,0.3c-5.6,0-8.4-2.9-8.4-8.8v-17.4h-5.1v-3.5h5.1l0.2-7.3l4.2-0.4v7.7h6.5
		v3.5h-6.5v18.1c0,3,1.5,4.5,4.6,4.5C593.8,777.2,594.9,777.1,596.2,776.9z"/>
	<path class="st3" d="M634.4,751.1l-8.3,28.8h-3.6l-6.4-21.4l-5.9,21.4h-3.7l-8.7-28.8h4.5l6.3,21.5l6-21.5h3.3l6.5,21.6l6.5-21.6
		H634.4z"/>
	<path class="st3" d="M661.9,779.9h-4.4c-0.2-0.9-0.3-2.6-0.5-5.2c-2,4-5.4,6-10.1,6c-3.2,0-5.7-0.9-7.5-2.6
		c-1.7-1.7-2.6-3.8-2.6-6.2c0-2.9,1.2-5.3,3.7-7.2c2.5-1.9,6.7-2.8,12.6-2.8c0.8,0,2.1,0,3.8,0.1c0-2.3-0.2-3.9-0.5-5
		c-0.4-1-1.1-1.8-2.2-2.4s-2.6-0.9-4.5-0.9c-4.6,0-7.2,1.7-7.9,5.2l-4.1-0.7c1-5.3,5.3-8,12.7-8c4,0,6.8,0.9,8.5,2.6
		c1.7,1.8,2.5,4.8,2.5,9.2v12.3C661.3,776.4,661.5,778.2,661.9,779.9z M657,765.5c-1.8-0.1-3.2-0.2-4.2-0.2c-3.5,0-6.3,0.6-8.3,1.7
		c-2,1.2-2.9,2.9-2.9,5.1c0,1.4,0.5,2.6,1.6,3.6c1.1,1,2.6,1.5,4.6,1.5c2.7,0,4.9-1,6.7-2.9c1.7-2,2.6-4.3,2.6-6.9
		C657,766.9,657,766.2,657,765.5z"/>
	<path class="st3" d="M674.7,779.9h-4.5v-28.8h3.9v6.7c1.4-3.2,2.8-5.2,4.2-6.2c1.4-0.9,2.8-1.4,4.3-1.4c0.5,0,1,0,1.8,0.1v4.3h-0.9
		c-2.5,0-4.5,0.9-6.2,2.8c-1.6,1.8-2.5,4.3-2.6,7.3V779.9z"/>
	<path class="st3" d="M708.6,771.3l4.2,0.9c-0.8,2.5-2.2,4.5-4.5,6.1c-2.2,1.6-4.8,2.4-7.8,2.4c-3.9,0-7.1-1.4-9.6-4.2
		c-2.4-2.8-3.7-6.4-3.7-10.9c0-4.6,1.3-8.3,3.8-11.1c2.5-2.8,5.7-4.2,9.5-4.2c3.8,0,6.8,1.3,9.1,3.9c2.3,2.6,3.5,6.5,3.5,11.7h-21
		c0,4.4,0.9,7.3,2.7,8.8s3.8,2.3,5.8,2.3C704.5,777,707.1,775.1,708.6,771.3z M708.3,762.6c0-1.6-0.3-3.1-0.8-4.3s-1.3-2.3-2.5-3.2
		c-1.2-0.9-2.6-1.3-4.3-1.3c-2.2,0-4.1,0.8-5.7,2.4c-1.6,1.6-2.4,3.8-2.6,6.5H708.3z"/>
	<path class="st3" d="M760.2,775.6v4.3H735v-39h24.7v4.3h-19.8v12.4h15.7v4h-15.7v14.1H760.2z"/>
	<path class="st3" d="M789.4,779.9h-4.2v-18.5c0-2.7-0.6-4.5-1.7-5.6c-1.2-1.1-2.6-1.6-4.2-1.6c-2.3,0-4.2,0.9-5.8,2.7
		c-1.6,1.8-2.3,4.2-2.3,7.2v15.8h-4.5v-28.8h4.2v5.3c2.3-4.1,5.4-6.1,9.1-6.1c2.2,0,4,0.6,5.5,1.7c1.5,1.1,2.6,2.4,3.1,3.8
		c0.6,1.4,0.8,3.9,0.8,7.5V779.9z"/>
	<path class="st3" d="M821.9,746.6v3.6c-2.1,0-3.4,0.2-4.1,0.7c-0.7,0.5-1.2,1.3-1.4,2.6c1.8,2.1,2.8,4.5,2.8,7c0,2.6-1,4.9-3,6.8
		s-4.7,2.8-8.1,2.8c-0.8,0-1.4-0.1-2-0.2c-1-0.2-1.7-0.3-2-0.3c-0.5,0-1.1,0.3-1.9,0.8c-0.7,0.5-1.1,1.2-1.1,2
		c0,1.1,0.5,1.9,1.6,2.2s3.5,0.6,7.4,0.7c3.3,0.1,5.7,0.3,7.3,0.7c1.6,0.4,2.9,1.1,4,2.3c1.1,1.2,1.6,2.7,1.6,4.4
		c0,5.5-4.8,8.3-14.5,8.3c-4.6,0-7.9-0.7-10-2.1c-2.1-1.4-3.2-3.2-3.2-5.5c0-2.8,1.5-4.7,4.4-5.8c-1.9-1.2-2.8-2.8-2.8-4.7
		c0-2.2,1.3-3.9,4-5.1c-2.5-2-3.7-4.6-3.7-7.6c0-2.9,1.1-5.2,3.2-7c2.1-1.8,4.7-2.7,7.8-2.7c2.2,0,4.1,0.4,5.9,1.2
		c0.3-1.9,0.9-3.2,2-3.9c1-0.7,2.6-1.1,4.7-1.1C821,746.5,821.4,746.5,821.9,746.6z M802.9,778.8c-2.1,0.9-3.1,2.2-3.1,4
		c0,1.5,0.9,2.6,2.6,3.4c1.7,0.8,3.9,1.2,6.6,1.2c2.5,0,4.7-0.3,6.8-1c2.1-0.7,3.1-1.9,3.1-3.5c0-0.9-0.3-1.6-0.9-2.2
		s-1.4-0.9-2.5-1.1c-1.1-0.2-2.9-0.3-5.5-0.3C806.7,779.1,804.4,779,802.9,778.8z M808.2,766.6c1.9,0,3.5-0.6,4.7-1.8
		c1.2-1.2,1.8-2.7,1.8-4.6c0-1.9-0.6-3.5-1.9-4.7s-2.8-1.8-4.5-1.8c-1.7,0-3.2,0.6-4.5,1.7c-1.3,1.1-2,2.7-2,4.8
		c0,1.9,0.6,3.4,1.8,4.5C804.7,766,806.3,766.6,808.2,766.6z"/>
	<path class="st3" d="M831.7,740.9v5h-4.8v-5H831.7z M831.6,751.1v28.8h-4.5v-28.8H831.6z"/>
	<path class="st3" d="M863.3,779.9h-4.2v-18.5c0-2.7-0.6-4.5-1.7-5.6c-1.2-1.1-2.6-1.6-4.2-1.6c-2.3,0-4.2,0.9-5.8,2.7
		c-1.6,1.8-2.3,4.2-2.3,7.2v15.8h-4.5v-28.8h4.2v5.3c2.3-4.1,5.4-6.1,9.1-6.1c2.2,0,4,0.6,5.5,1.7c1.5,1.1,2.6,2.4,3.1,3.8
		c0.6,1.4,0.8,3.9,0.8,7.5V779.9z"/>
	<path class="st3" d="M891.3,771.3l4.2,0.9c-0.8,2.5-2.2,4.5-4.5,6.1c-2.2,1.6-4.8,2.4-7.8,2.4c-3.9,0-7.1-1.4-9.6-4.2
		c-2.4-2.8-3.7-6.4-3.7-10.9c0-4.6,1.3-8.3,3.8-11.1c2.5-2.8,5.7-4.2,9.5-4.2c3.8,0,6.8,1.3,9.1,3.9c2.3,2.6,3.5,6.5,3.5,11.7h-21
		c0,4.4,0.9,7.3,2.7,8.8s3.8,2.3,5.8,2.3C887.2,777,889.8,775.1,891.3,771.3z M891,762.6c0-1.6-0.3-3.1-0.8-4.3s-1.3-2.3-2.5-3.2
		c-1.2-0.9-2.6-1.3-4.3-1.3c-2.2,0-4.1,0.8-5.7,2.4c-1.6,1.6-2.4,3.8-2.6,6.5H891z"/>
	<path class="st3" d="M921.7,771.3l4.2,0.9c-0.8,2.5-2.2,4.5-4.5,6.1c-2.2,1.6-4.8,2.4-7.8,2.4c-3.9,0-7.1-1.4-9.6-4.2
		c-2.4-2.8-3.7-6.4-3.7-10.9c0-4.6,1.3-8.3,3.8-11.1c2.5-2.8,5.7-4.2,9.5-4.2c3.8,0,6.8,1.3,9.1,3.9c2.3,2.6,3.5,6.5,3.5,11.7h-21
		c0,4.4,0.9,7.3,2.7,8.8s3.8,2.3,5.8,2.3C917.6,777,920.2,775.1,921.7,771.3z M921.5,762.6c0-1.6-0.3-3.1-0.8-4.3s-1.3-2.3-2.5-3.2
		c-1.2-0.9-2.6-1.3-4.3-1.3c-2.2,0-4.1,0.8-5.7,2.4c-1.6,1.6-2.4,3.8-2.6,6.5H921.5z"/>
	<path class="st3" d="M937.6,779.9h-4.5v-28.8h3.9v6.7c1.4-3.2,2.8-5.2,4.2-6.2c1.4-0.9,2.8-1.4,4.3-1.4c0.5,0,1,0,1.8,0.1v4.3h-0.9
		c-2.5,0-4.5,0.9-6.2,2.8c-1.6,1.8-2.5,4.3-2.6,7.3V779.9z"/>
</g>
</svg>
