<?xml version="1.0" encoding="utf-8"?>
<!-- Generator: Adobe Illustrator 27.0.1, SVG Export Plug-In . SVG Version: 6.00 Build 0)  -->
<svg version="1.1" id="katman_1" xmlns="http://www.w3.org/2000/svg" xmlns:xlink="http://www.w3.org/1999/xlink" x="0px" y="0px"
	 viewBox="0 0 1000 1000" style="enable-background:new 0 0 1000 1000;" xml:space="preserve">
<style type="text/css">
	.st0{fill:url(#SVGID_1_);}
	.st1{fill:url(#SVGID_00000093889038350973695170000000398970543673527221_);}
	.st2{fill:#412354;}
</style>
<linearGradient id="SVGID_1_" gradientUnits="userSpaceOnUse" x1="266.7999" y1="389.7218" x2="500.0045" y2="389.7218">
	<stop  offset="0" style="stop-color:#402312"/>
	<stop  offset="0" style="stop-color:#9B185D"/>
	<stop  offset="1" style="stop-color:#402312"/>
</linearGradient>
<path class="st0" d="M369.3,389.7c0-82.7,55.1-152.5,130.7-174.6c-16.3-4.8-33.5-7.3-51.3-7.3c-100.5,0-181.9,81.5-181.9,181.9
	s81.5,181.9,181.9,181.9c17.8,0,35-2.6,51.3-7.3C424.5,542.2,369.3,472.4,369.3,389.7z"/>
<linearGradient id="SVGID_00000096753114105343796220000006521812636759473536_" gradientUnits="userSpaceOnUse" x1="500.0045" y1="389.7218" x2="733.2094" y2="389.7218">
	<stop  offset="0" style="stop-color:#402312"/>
	<stop  offset="1" style="stop-color:#9E1460"/>
</linearGradient>
<path style="fill:url(#SVGID_00000096753114105343796220000006521812636759473536_);" d="M551.3,207.8c-17.8,0-35,2.6-51.3,7.3
	c75.5,22.1,130.7,91.9,130.7,174.6c0,82.7-55.1,152.5-130.7,174.6c16.3,4.8,33.5,7.3,51.3,7.3c100.5,0,181.9-81.5,181.9-181.9
	S651.8,207.8,551.3,207.8z"/>
<g>
	<path class="st2" d="M500,215.1c-75.5,22.1-130.7,91.9-130.7,174.6c0,82.7,55.1,152.5,130.7,174.6
		c75.5-22.1,130.7-91.9,130.7-174.6C630.7,307,575.5,237.3,500,215.1z M579.4,429.2c0,43-38.3,77.9-85.6,77.9h0
		c-45.3,0-82.4-32-85.4-72.6h-0.2v-5.3v-11.3v-3.2v-50.4h53.2v53.6v11.3c0,16.6,15.1,30.1,33.6,29.5c17.6-0.6,31.2-14.2,31.2-30.2
		v-78.7v-48.7h51.5c0.6-0.3,1.1-0.6,1.7-0.9v49.5V429.2z"/>
	<path class="st2" d="M552.7,325.7c-8.6,0-15.5,6.9-15.5,15.5c0,8.6,6.9,15.5,15.5,15.5c8.6,0,15.5-6.9,15.5-15.5
		C568.2,332.6,561.2,325.7,552.7,325.7z"/>
</g>
</svg>
